<svg aria-hidden="true" style="width:0;height:0;position:absolute;overflow:hidden" xmlns="http://www.w3.org/2000/svg"><defs><symbol id="icon-sun" viewBox="0 0 32 32"><path fill="none" stroke="#fff" style="stroke:var(--color1,#fff)" stroke-linejoin="round" stroke-linecap="round" stroke-width="2" d="M16 26c5.523 0 10-4.477 10-10S21.523 6 16 6v0C10.477 6 6 10.477 6 16s4.477 10 10 10v0z"/><path fill="none" stroke="#fff" style="stroke:var(--color1,#fff)" stroke-linejoin="round" stroke-linecap="round" stroke-width="3" d="m25.814 6.186.182-.182M6.004 25.996l.182-.182M16 2.112V2m0 28v-.112M2.112 16H2m28 0h-.112M6.186 6.186l-.182-.182m19.992 19.992-.182-.182"/></symbol><symbol id="icon-search" viewBox="0 0 32 32"><path stroke-linejoin="round" stroke-linecap="round" stroke-width="2.08" d="m14.667 25.333.131.001c5.891 0 10.667-4.776 10.667-10.667S20.689 4 14.798 4l-.138.001h.007C8.832 4.075 4.13 8.822 4.13 14.667S8.832 25.26 14.66 25.333h.007zM28 28l-5.8-5.8"/></symbol><symbol id="icon-moon" viewBox="0 0 32 32"><path fill="none" style="stroke:var(--color1,#fff)" stroke-linejoin="round" stroke-linecap="round" stroke-width="2.133" d="M2.189 16.585c.516 7.14 6.773 12.949 14.261 13.269 5.282.22 10.007-2.163 12.843-5.92 1.173-1.54.544-2.566-1.417-2.219-.96.166-1.948.235-2.978.192-7.002-.277-12.73-5.946-12.757-12.642v-.1c0-1.798.396-3.504 1.104-5.035l-.031.074c.772-1.717-.158-2.537-1.948-1.801-5.67 2.315-9.549 7.846-9.077 14.18z"/></symbol><symbol id="icon-heart" viewBox="0 0 34 32"><path fill="#f87719" style="fill:var(--color18,#f87719)" d="m17.231 31.705-2.412-2.412C5.859 21.367.001 16.025.001 9.478.001 4.136 4.136.001 9.478.001c2.929 0 5.858 1.378 7.754 3.618 1.895-2.24 4.825-3.618 7.754-3.618 5.342 0 9.477 4.135 9.477 9.477 0 6.548-5.858 11.889-14.818 19.815l-2.412 2.412z"/></symbol><symbol id="icon-close" viewBox="0 0 32 32"><path fill="none" stroke="#fff" style="stroke:var(--color1,#fff)" stroke-linejoin="round" stroke-linecap="round" stroke-width="1.333" d="M23 23 9 9m14 0L9 23"/></symbol><symbol id="icon-star-outline" viewBox="0 0 32 32"><path stroke-linejoin="round" stroke-width="1.778" d="M30 13.001H19.25l-3.25-10-3.25 10H2l8.75 6-3.376 9.998L16 22.75l8.626 6.249-3.376-10L30 13.001z"/></symbol><symbol id="icon-star-half" viewBox="0 0 32 32"><path fill="none" stroke="#000" style="stroke:var(--color13,#000)" stroke-linejoin="round" stroke-width="1.778" d="M30 13.001H19.25l-3.25-10-3.25 10H2l8.75 6-3.376 9.998L16 22.75l8.626 6.249-3.376-10L30 13.001z"/><path d="M16 3.001V22.75l-8.626 6.249 3.376-10L2 13.001h10.75l3.25-10z"/></symbol><symbol id="icon-star" viewBox="0 0 32 32"><path d="M24.626 30h-.002a.999.999 0 0 1-.587-.19l.003.002-8.039-5.828-8.036 5.829a.999.999 0 0 1-1.532-1.136l-.002.007 3.134-9.287-8.124-5.573A1 1 0 0 1 2.003 12h10.025l3.024-9.31a1 1 0 0 1 1.9-.007l.002.007 3.026 9.312h10.023a1 1 0 0 1 .57 1.824l-.003.002-8.128 5.568 3.132 9.284a1.003 1.003 0 0 1-.945 1.321z"/></symbol><symbol id="icon-circle-right" viewBox="0 0 32 32"><path fill="#fff" style="fill:var(--color1,#fff)" d="M4.708 4.708c6.261-6.26 16.391-6.279 22.628-.043s6.217 16.366-.043 22.628c-6.261 6.26-16.391 6.279-22.628.043s-6.217-16.366.043-22.628z"/><path fill="none" stroke="#000" style="stroke:var(--color13,rgba(248,159,25,.68))" stroke-linecap="round" stroke-width="2.133" d="M25.204 6.354c5.116 5.47 5.099 14.359-.044 19.854"/></symbol><symbol id="icon-circle-left" viewBox="0 0 32 32"><path fill="#fff" style="fill:var(--color1,#fff)" d="M27.292 4.708c-6.261-6.26-16.391-6.279-22.628-.043s-6.217 16.366.043 22.628c6.261 6.26 16.391 6.279 22.628.043s6.217-16.366-.043-22.628z"/><path fill="none" stroke="#000" style="stroke:var(--color13,#000)" stroke-linecap="round" stroke-width="2.133" d="M6.798 6.354c-5.12 5.47-5.1 14.359.043 19.854"/></symbol><symbol id="icon-arrow-right" viewBox="0 0 32 32"><path fill="none" stroke="#595959" style="stroke:var(--color34,#595959)" stroke-linejoin="round" stroke-linecap="round" stroke-width="2.286" d="m11.501 7 8.998 9-9 9"/></symbol><symbol id="icon-arrow-left" viewBox="0 0 32 32"><path fill="none" stroke="#b7b7b7" style="stroke:var(--color35,#b7b7b7)" stroke-linejoin="round" stroke-linecap="round" stroke-width="2.286" d="m20.501 7-9 9 8.999 9"/></symbol><symbol id="icon-github" viewBox="0 0 32 32"><path d="M16 0C7.165 0 0 7.164 0 16c0 7.069 4.584 13.067 10.943 15.183.799.148 1.057-.348 1.057-.769v-2.979c-4.451.968-5.377-1.888-5.377-1.888-.728-1.849-1.777-2.341-1.777-2.341-1.452-.993.111-.972.111-.972 1.607.112 2.452 1.649 2.452 1.649 1.427 2.445 3.743 1.739 4.656 1.329.143-1.033.557-1.74 1.016-2.139-3.553-.407-7.289-1.779-7.289-7.908 0-1.748.625-3.175 1.648-4.295-.165-.404-.713-2.032.156-4.235 0 0 1.344-.429 4.401 1.64 1.2-.34 2.579-.536 4.003-.539h.001c1.36.007 2.729.184 4.008.539 3.055-2.069 4.396-1.64 4.396-1.64.871 2.204.323 3.832.157 4.235 1.027 1.12 1.647 2.548 1.647 4.295 0 6.145-3.743 7.499-7.305 7.895.573.496 1.097 1.469 1.097 2.963v4.391c0 .425.256.925 1.068.768 6.353-2.119 10.932-8.115 10.932-15.181 0-8.836-7.164-16-16-16z"/></symbol><symbol id="icon-linkedin" viewBox="0 0 32 32"><path d="M16 0C7.164 0 0 7.164 0 16s7.164 16 16 16 16-7.164 16-16S24.836 0 16 0zm-2.667 21.333h-2.667v-8h2.667v8zM12 12.145a1.473 1.473 0 0 1-1.467-1.479c0-.816.656-1.479 1.467-1.479s1.467.663 1.467 1.479c0 .817-.657 1.479-1.467 1.479zm10.667 9.188h-2.664v-3.815c0-2.508-2.669-2.296-2.669 0v3.815h-2.667v-8h2.667v1.457c1.163-2.155 5.333-2.315 5.333 2.064v4.479z"/></symbol></defs></svg>