<svg aria-hidden="true" style="position: absolute; width: 0; height: 0; overflow: hidden;" version="1.1" xmlns="http://www.w3.org/2000/svg" xmlns:xlink="http://www.w3.org/1999/xlink">
<defs>
<symbol id="icon-sun" viewBox="0 0 32 32">
<path fill="none" stroke="#fff" style="stroke: var(--color1, #fff)" stroke-linejoin="round" stroke-linecap="round" stroke-miterlimit="4" stroke-width="2" d="M16 26c5.523 0 10-4.477 10-10s-4.477-10-10-10v0c-5.523 0-10 4.477-10 10s4.477 10 10 10v0z"></path>
<path fill="none" stroke="#fff" style="stroke: var(--color1, #fff)" stroke-linejoin="round" stroke-linecap="round" stroke-miterlimit="4" stroke-width="3" d="M25.814 6.186l0.182-0.182M6.004 25.996l0.182-0.182M16 2.112v-0.112M16 30v-0.112M2.112 16h-0.112M30 16h-0.112M6.186 6.186l-0.182-0.182M25.996 25.996l-0.182-0.182"></path>
</symbol>
<symbol id="icon-search" viewBox="0 0 32 32">
<path stroke-linejoin="round" stroke-linecap="round" stroke-miterlimit="4" stroke-width="2.0800" d="M14.667 25.333c0.039 0 0.085 0.001 0.131 0.001 5.891 0 10.667-4.776 10.667-10.667s-4.776-10.667-10.667-10.667c-0.046 0-0.092 0-0.138 0.001l0.007-0c-5.835 0.074-10.537 4.821-10.537 10.666s4.702 10.593 10.53 10.666l0.007 0zM28 28l-5.8-5.8"></path>
</symbol>
<symbol id="icon-moon" viewBox="0 0 32 32">
<path fill="none" stroke="" style="stroke: var(--color1, #fff)" stroke-linejoin="round" stroke-linecap="round" stroke-miterlimit="4" stroke-width="2.1333" d="M2.189 16.585c0.516 7.14 6.773 12.949 14.261 13.269 5.282 0.22 10.007-2.163 12.843-5.92 1.173-1.54 0.544-2.566-1.417-2.219-0.96 0.166-1.948 0.235-2.978 0.192-7.002-0.277-12.73-5.946-12.757-12.642-0-0.030-0-0.065-0-0.1 0-1.798 0.396-3.504 1.104-5.035l-0.031 0.074c0.772-1.717-0.158-2.537-1.948-1.801-5.67 2.315-9.549 7.846-9.077 14.18z"></path>
</symbol>
<symbol id="icon-heart" viewBox="0 0 34 32">
<path fill="#f87719" style="fill: var(--color18, #f87719)" d="M17.231 31.705l-2.412-2.412c-8.96-7.926-14.818-13.268-14.818-19.815 0-5.342 4.135-9.477 9.477-9.477 2.929 0 5.858 1.378 7.754 3.618 1.895-2.24 4.825-3.618 7.754-3.618 5.342 0 9.477 4.135 9.477 9.477 0 6.548-5.858 11.889-14.818 19.815l-2.412 2.412z"></path>
</symbol>
<symbol id="icon-close" viewBox="0 0 32 32">
<path fill="none" stroke="#fff" style="stroke: var(--color1, #fff)" stroke-linejoin="round" stroke-linecap="round" stroke-miterlimit="4" stroke-width="1.3333" d="M23 23l-14-14M23 9l-14 14"></path>
</symbol>
<symbol id="icon-star-outline" viewBox="0 0 32 32">
<path stroke-linejoin="round" stroke-linecap="butt" stroke-miterlimit="4" stroke-width="1.7778" d="M30 13.001h-10.75l-3.25-10-3.25 10h-10.75l8.75 6-3.376 9.998 8.626-6.249 8.626 6.249-3.376-10 8.75-5.998z"></path>
</symbol>
<symbol id="icon-star-half" viewBox="0 0 32 32">
<path fill="none" stroke="#000" style="stroke: var(--color13, #000)" stroke-linejoin="round" stroke-linecap="butt" stroke-miterlimit="4" stroke-width="1.7778" d="M30 13.001h-10.75l-3.25-10-3.25 10h-10.75l8.75 6-3.376 9.998 8.626-6.249 8.626 6.249-3.376-10 8.75-5.998z"></path>
<path d="M16 3.001v19.749l-8.626 6.249 3.376-10-8.75-5.998h10.75l3.25-10z"></path>
</symbol>
<symbol id="icon-star" viewBox="0 0 32 32">
<path d="M24.626 30c-0.001 0-0.001 0-0.002 0-0.22 0-0.422-0.071-0.587-0.19l0.003 0.002-8.039-5.828-8.036 5.829c-0.163 0.12-0.367 0.191-0.588 0.191-0.552 0-0.999-0.447-0.999-0.999 0-0.115 0.019-0.225 0.055-0.328l-0.002 0.007 3.134-9.287-8.124-5.573c-0.264-0.182-0.435-0.484-0.435-0.825 0-0.551 0.446-0.998 0.997-0.999h10.025l3.024-9.31c0.133-0.406 0.509-0.693 0.951-0.693s0.818 0.288 0.949 0.686l0.002 0.007 3.026 9.312h10.023c0 0 0 0 0 0 0.553 0 1.001 0.448 1.001 1.001 0 0.341-0.17 0.642-0.431 0.823l-0.003 0.002-8.128 5.568 3.132 9.284c0.033 0.095 0.052 0.204 0.052 0.318 0 0.552-0.446 1-0.997 1.003h-0z"></path>
</symbol>
<symbol id="icon-circle-right" viewBox="0 0 32 32">
<path fill="#fff" style="fill: var(--color1, #fff)" d="M4.708 4.708c6.261-6.26 16.391-6.279 22.628-0.043s6.217 16.366-0.043 22.628c-6.261 6.26-16.391 6.279-22.628 0.043s-6.217-16.366 0.043-22.628z"></path>
<path fill="none" stroke="#000" style="stroke: var(--color13, rgba(248,159,25,.68))" stroke-linejoin="miter" stroke-linecap="round" stroke-miterlimit="4" stroke-width="2.1333" d="M25.204 6.354c5.116 5.47 5.099 14.359-0.044 19.854"></path>
</symbol>
<symbol id="icon-circle-left" viewBox="0 0 32 32">
<path fill="#fff" style="fill: var(--color1, #fff)" d="M27.292 4.708c-6.261-6.26-16.391-6.279-22.628-0.043s-6.217 16.366 0.043 22.628c6.261 6.26 16.391 6.279 22.628 0.043s6.217-16.366-0.043-22.628z"></path>
<path fill="none" stroke="#000" style="stroke: var(--color13, #000)" stroke-linejoin="miter" stroke-linecap="round" stroke-miterlimit="4" stroke-width="2.1333" d="M6.798 6.354c-5.12 5.47-5.1 14.359 0.043 19.854"></path>
</symbol>
<symbol id="icon-arrow-right" viewBox="0 0 32 32">
<path fill="none" stroke="#595959" style="stroke: var(--color34, #595959)" stroke-linejoin="round" stroke-linecap="round" stroke-miterlimit="4" stroke-width="2.2857" d="M11.501 7l8.998 9-9 9"></path>
</symbol>
<symbol id="icon-arrow-left" viewBox="0 0 32 32">
<path fill="none" stroke="#b7b7b7" style="stroke: var(--color35, #b7b7b7)" stroke-linejoin="round" stroke-linecap="round" stroke-miterlimit="4" stroke-width="2.2857" d="M20.501 7l-9 9 8.999 9"></path>
</symbol>
<symbol id="icon-github" viewBox="0 0 32 32">
<path d="M16 0c-8.835 0-16 7.164-16 16 0 7.069 4.584 13.067 10.943 15.183 0.799 0.148 1.057-0.348 1.057-0.769v-2.979c-4.451 0.968-5.377-1.888-5.377-1.888-0.728-1.849-1.777-2.341-1.777-2.341-1.452-0.993 0.111-0.972 0.111-0.972 1.607 0.112 2.452 1.649 2.452 1.649 1.427 2.445 3.743 1.739 4.656 1.329 0.143-1.033 0.557-1.74 1.016-2.139-3.553-0.407-7.289-1.779-7.289-7.908 0-1.748 0.625-3.175 1.648-4.295-0.165-0.404-0.713-2.032 0.156-4.235 0 0 1.344-0.429 4.401 1.64 1.2-0.34 2.579-0.536 4.003-0.539h0.001c1.36 0.007 2.729 0.184 4.008 0.539 3.055-2.069 4.396-1.64 4.396-1.64 0.871 2.204 0.323 3.832 0.157 4.235 1.027 1.12 1.647 2.548 1.647 4.295 0 6.145-3.743 7.499-7.305 7.895 0.573 0.496 1.097 1.469 1.097 2.963v4.391c0 0.425 0.256 0.925 1.068 0.768 6.353-2.119 10.932-8.115 10.932-15.181 0-8.836-7.164-16-16-16z"></path>
</symbol>
<symbol id="icon-linkedin" viewBox="0 0 32 32">
<path d="M16 0c-8.836 0-16 7.164-16 16s7.164 16 16 16 16-7.164 16-16-7.164-16-16-16zM13.333 21.333h-2.667v-8h2.667v8zM12 12.145c-0.809 0-1.467-0.661-1.467-1.479 0-0.816 0.656-1.479 1.467-1.479s1.467 0.663 1.467 1.479c0 0.817-0.657 1.479-1.467 1.479zM22.667 21.333h-2.664v-3.815c0-2.508-2.669-2.296-2.669 0v3.815h-2.667v-8h2.667v1.457c1.163-2.155 5.333-2.315 5.333 2.064v4.479z"></path>
</symbol>
</defs>
</svg>
