<svg xmlns="http://www.w3.org/2000/svg" width="24" height="24" fill="none"><mask id="a" width="24" height="24" x="0" y="0" maskUnits="userSpaceOnUse" style="mask-type:luminance"><path fill="#fff" d="M0 0h24v24H0V0Z"/></mask><g mask="url(#a)"><path fill="#FAF8F8" d="M23.648 7.078v12.633c0 .777-.63 1.406-1.406 1.406H1.822c-.777 0-1.407-.63-1.407-1.406L.352 7.078l12.016-.469 11.28.47Z"/><path fill="#EFE9E6" d="M23.648 8.016H.352v-.938h23.296v.938Z"/><path fill="#EFE9E6" d="M2.695 21.117h-.937c-.777 0-1.406-.63-1.406-1.406V7.078h.937v12.633c0 .777.63 1.406 1.406 1.406Z"/><path fill="#596C76" d="M23.648 4.29v2.788H.352V4.29c0-.777.63-1.406 1.406-1.406h20.484c.777 0 1.406.63 1.406 1.406Z"/><path fill="#475A61" d="M11.028 6.258a.702.702 0 0 1-.7-.703c0-.389.313-.703.7-.703h9.765c.387 0 .7.314.7.703a.702.702 0 0 1-.7.703h-9.765ZM8.593 5.555a.702.702 0 1 1-1.402 0 .702.702 0 1 1 1.401 0Z"/><path fill="#475A61" d="m8.384 6.055.604-.603-.616.055.012.548ZM7.41 5.044 8 4.457l-.126.488-.463.1ZM5.648 5.555a.702.702 0 1 1-.701-.703c.387 0 .7.314.7.703Z"/><path fill="#475A61" d="m5.44 6.054.58-.586-.593.04.013.546ZM4.465 5.044l.58-.584-.118.485-.462.1ZM2.597 5.555a.702.702 0 1 1-.701-.703c.387 0 .7.314.7.703Z"/><path fill="#475A61" d="M2.403 6.04 3 5.42l-.616.065.02.554ZM1.414 5.044l.545-.564-.082.465-.463.1Z"/><path fill="#BDF189" d="M9.201 4.945a.702.702 0 1 1-.7-.703c.387 0 .7.315.7.703Z"/><path fill="#475A61" d="m10.547 5.043.608-.61-.141.67-.466-.06ZM21.297 6.043l.616-.618-.477.159-.14.459Z"/><path fill="#FFC682" d="M6.253 4.945a.702.702 0 1 1-1.402 0 .702.702 0 1 1 1.401 0Z"/><path fill="#F87719" d="M3.185 4.945a.702.702 0 1 1-.7-.703c.386 0 .7.315.7.703Z"/><path fill="#FAF8F8" d="M11.636 5.648a.702.702 0 0 1-.7-.703c0-.388.313-.703.7-.703H21.4c.387 0 .7.315.7.703a.702.702 0 0 1-.7.703h-9.765Z"/><path fill="#F87719" d="M17.273 14.133a5.297 5.297 0 1 1-10.593 0 5.297 5.297 0 0 1 10.593 0Z"/><path fill="#E56F1A" d="M12.445 19.41a5.297 5.297 0 1 1 0-10.553 5.297 5.297 0 0 0 0 10.552Z"/><path fill="#FAF8F8" d="m13.928 13.588-2.271-1.447a.645.645 0 0 0-.992.545v2.894c0 .51.562.818.992.544l2.27-1.447a.645.645 0 0 0 0-1.088Z"/><path stroke="#000" stroke-linecap="round" stroke-linejoin="round" stroke-miterlimit="10" stroke-width=".5" d="M3.13 5.11a.705.705 0 0 1-.707.702.705.705 0 0 1-.706-.703c0-.388.316-.703.706-.703.39 0 .706.315.706.703ZM6.189 5.11a.705.705 0 0 1-.706.702.705.705 0 0 1-.706-.703c0-.388.316-.703.706-.703.39 0 .706.315.706.703ZM9.16 5.11a.705.705 0 0 1-.706.702.705.705 0 0 1-.706-.703c0-.388.316-.703.706-.703.39 0 .706.315.706.703ZM19.743 7.195h3.905M.352 7.219h17.725M21.497 5.813h-9.884a.705.705 0 0 1-.706-.704c0-.388.316-.703.706-.703h9.884c.39 0 .706.315.706.703a.705.705 0 0 1-.706.704Z"/><path stroke="#000" stroke-linecap="round" stroke-linejoin="round" stroke-miterlimit="10" stroke-width=".5" d="M.352 18.422v1.289c0 .777.63 1.406 1.406 1.406h20.484c.777 0 1.406-.63 1.406-1.406V4.289c0-.777-.63-1.406-1.406-1.406H1.758c-.777 0-1.406.63-1.406 1.406v12.492"/><path stroke="#000" stroke-linecap="round" stroke-linejoin="round" stroke-miterlimit="10" stroke-width=".5" d="M10.665 15.047v.533c0 .51.562.818.992.544l2.27-1.447a.645.645 0 0 0 0-1.088l-2.27-1.447a.645.645 0 0 0-.992.544v.72"/><path stroke="#000" stroke-linecap="round" stroke-linejoin="round" stroke-miterlimit="10" stroke-width=".5" d="M16.016 10.707a5.297 5.297 0 1 1-1.242-1.072"/></g></svg>